HIERARCHY
ROOT joint_Root
{
	OFFSET 0.0 0.0 0.0
	CHANNELS 6 Xposition Yposition Zposition Zrotation Xrotation Yrotation 
	JOINT Hips
	{
		OFFSET -0.726466 93.3139 -2.00062
		CHANNELS 6 Xposition Yposition Zposition Zrotation Xrotation Yrotation 
		JOINT Spine
		{
			OFFSET 15.7357 0.0 0.0
			CHANNELS 6 Xposition Yposition Zposition Zrotation Xrotation Yrotation 
			JOINT Chest
			{
				OFFSET 8.98455 -0.406207 0.0
				CHANNELS 6 Xposition Yposition Zposition Zrotation Xrotation Yrotation 
				JOINT Neck
				{
					OFFSET 16.3773 0.0 0.0
					CHANNELS 6 Xposition Yposition Zposition Zrotation Xrotation Yrotation 
					JOINT Head
					{
						OFFSET 6.45672 0.0 0.0
						CHANNELS 6 Xposition Yposition Zposition Zrotation Xrotation Yrotation 
						End Site
						{
							OFFSET 0.0 0.0 0.0
						}
					}
				}
				JOINT Shoulder_L
				{
					OFFSET 12.9942 -0.242716 4.98039
					CHANNELS 6 Xposition Yposition Zposition Zrotation Xrotation Yrotation 
					JOINT UpperArm_L
					{
						OFFSET 5.34809 0.0 0.0
						CHANNELS 6 Xposition Yposition Zposition Zrotation Xrotation Yrotation 
						JOINT LowerArm_L
						{
							OFFSET 24.3286 1.87007e-05 0.0
							CHANNELS 6 Xposition Yposition Zposition Zrotation Xrotation Yrotation 
							JOINT Hand_L
							{
								OFFSET 22.2916 0.0 0.0
								CHANNELS 6 Xposition Yposition Zposition Zrotation Xrotation Yrotation 
								End Site
								{
									OFFSET 0.0 0.0 0.0
								}
							}
						}
					}
				}
				JOINT Shoulder_R
				{
					OFFSET 12.9945 -0.242716 -4.98039
					CHANNELS 6 Xposition Yposition Zposition Zrotation Xrotation Yrotation 
					JOINT UpperArm_R
					{
						OFFSET -5.34813 0.0 0.0
						CHANNELS 6 Xposition Yposition Zposition Zrotation Xrotation Yrotation 
						JOINT LowerArm_R
						{
							OFFSET -24.3289 0.000322201 0.0
							CHANNELS 6 Xposition Yposition Zposition Zrotation Xrotation Yrotation 
							JOINT Hand_R
							{
								OFFSET -22.2915 -0.000108084 0.0
								CHANNELS 6 Xposition Yposition Zposition Zrotation Xrotation Yrotation 
								End Site
								{
									OFFSET 0.0 0.0 0.0
								}
							}
						}
					}
				}
			}
		}
		JOINT UpperLeg_L
		{
			OFFSET -2.19248 -6.46944 0.0
			CHANNELS 6 Xposition Yposition Zposition Zrotation Xrotation Yrotation 
			JOINT LowerLeg_L
			{
				OFFSET 39.0811 0.0 -1.23785e-05
				CHANNELS 6 Xposition Yposition Zposition Zrotation Xrotation Yrotation 
				JOINT Foot_L
				{
					OFFSET 40.9854 0.0 -1.26872e-05
					CHANNELS 6 Xposition Yposition Zposition Zrotation Xrotation Yrotation 
					JOINT Toes_L
					{
						OFFSET 11.7543 0.0 0.0
						CHANNELS 6 Xposition Yposition Zposition Zrotation Xrotation Yrotation 
						End Site
						{
							OFFSET 0.0 0.0 0.0
						}
					}
				}
			}
		}
		JOINT UpperLeg_R
		{
			OFFSET -2.19251 6.46944 0.0
			CHANNELS 6 Xposition Yposition Zposition Zrotation Xrotation Yrotation 
			JOINT LowerLeg_R
			{
				OFFSET -39.0811 -0.00228153 -0.0401928
				CHANNELS 6 Xposition Yposition Zposition Zrotation Xrotation Yrotation 
				JOINT Foot_R
				{
					OFFSET -40.9854 0.0 0.0
					CHANNELS 6 Xposition Yposition Zposition Zrotation Xrotation Yrotation 
					JOINT Toes_R
					{
						OFFSET -11.7543 0.0 0.0
						CHANNELS 6 Xposition Yposition Zposition Zrotation Xrotation Yrotation 
						End Site
						{
							OFFSET 0.0 0.0 0.0
						}
					}
				}
			}
		}
	}
}
MOTION
Frames:	8
Frame Time:	0.0333333
0.000000 0.000000 0.000000 0.000000 0.000000 -0.000000 -4.425930 89.933500 59.149200 -87.253000 -2.594140 -177.719000 15.735700 0.000005 -0.000001 70.675300 80.396800 -69.682400 8.984550 -0.406207 -0.000000 10.460100 -6.289490 2.562470 16.377300 -0.000001 -0.000001 6.606110 -2.747390 -0.781406 6.456720 -0.000001 -0.000000 1.246630 0.978568 0.655638 12.994200 -0.242716 4.980390 -88.234200 -5.237890 -71.340200 5.348090 -0.000007 -0.000001 -34.071300 20.864000 -36.384800 24.328600 0.000019 0.000005 5.113280 3.727310 -54.001400 22.291600 -0.000001 0.000005 8.392360 5.561520 -9.261670 12.994500 -0.242716 -4.980390 89.662600 0.711921 -64.644400 -5.348130 -0.000001 -0.000004 -60.524600 27.350100 -2.964820 -24.328900 0.000322 -0.000009 4.522890 5.407040 -40.019400 -22.291500 -0.000108 -0.000004 2.881110 5.576600 -10.031000 -2.192480 -6.469440 -0.000000 -175.600000 -7.471190 2.636940 39.081100 -0.000007 -0.000012 -0.228386 0.461135 26.348200 40.985400 -0.000006 -0.000013 -1.085860 -1.510810 -77.031000 11.754300 -0.000000 0.000003 -0.000271 -0.002390 -16.666900 -2.192510 6.469440 -0.000001 -175.821000 21.968100 154.637000 -39.081100 -0.002282 -0.040193 0.009790 -0.020859 17.217300 -40.985400 0.000008 0.000006 -1.862700 0.338566 -56.197400 -11.754300 -0.000006 -0.000006 -0.019891 -0.166684 -23.383000
0.000000 0.000000 0.000000 0.000000 0.000000 -0.000000 -4.049260 89.139600 55.669700 -88.142700 -4.205270 -177.885000 15.735700 0.000005 -0.000001 67.899900 80.291000 -67.035500 8.984550 -0.406207 -0.000000 10.341400 -7.237780 2.385320 16.377300 -0.000001 -0.000001 6.813360 -3.092120 -0.900900 6.456720 -0.000001 -0.000000 1.309740 1.132270 0.680721 12.994200 -0.242716 4.980390 -88.163100 -5.546840 -71.644500 5.348090 -0.000007 -0.000001 -32.489100 18.591400 -38.508400 24.328600 0.000019 0.000005 5.474910 3.928000 -54.446000 22.291600 -0.000001 0.000005 8.592320 5.561470 -9.259390 12.994500 -0.242716 -4.980390 89.785900 0.440908 -64.094500 -5.348130 -0.000001 -0.000004 -62.088500 25.633700 0.488897 -24.328900 0.000322 -0.000009 4.527490 5.471280 -39.716300 -22.291500 -0.000108 -0.000004 2.859800 5.576280 -10.014200 -2.192480 -6.469440 -0.000000 -175.920000 -7.099300 5.200800 39.081100 -0.000007 -0.000012 -0.012524 0.025879 25.825000 40.985400 -0.000006 -0.000013 1.555290 -1.138020 -79.224600 11.754300 -0.000000 0.000003 -1.528660 -2.006310 -15.359500 -2.192510 6.469440 -0.000001 -174.723000 24.418300 154.279000 -39.081100 -0.002282 -0.040193 0.005593 -0.014047 9.110160 -40.985400 0.000008 0.000006 -3.526060 1.595070 -56.392300 -11.754300 -0.000006 -0.000006 -0.020815 -0.171762 -23.592200
0.000000 0.000000 0.000000 0.000000 0.000000 -0.000000 -3.533690 88.237800 51.885500 -88.828500 -5.549150 -178.159000 15.735700 0.000005 -0.000001 65.587700 80.245600 -64.774000 8.984550 -0.406207 -0.000000 10.128900 -7.994860 2.338150 16.377300 -0.000001 -0.000001 7.033450 -3.317630 -0.990650 6.456720 -0.000001 -0.000000 1.392260 1.339070 0.624898 12.994200 -0.242716 4.980390 -88.150000 -5.614930 -71.730700 5.348090 -0.000007 -0.000001 -31.596000 16.742600 -39.902400 24.328600 0.000019 0.000005 5.782040 4.056770 -55.059700 22.291600 -0.000001 0.000005 8.651790 5.560760 -9.224470 12.994500 -0.242716 -4.980390 89.862800 0.277070 -63.653900 -5.348130 -0.000001 -0.000004 -62.972300 24.644500 3.176700 -24.328900 0.000322 -0.000009 4.504120 5.583960 -38.999400 -22.291500 -0.000108 -0.000004 2.597490 5.575040 -9.949290 -2.192480 -6.469440 -0.000000 -175.381000 -6.684410 7.236350 39.081100 -0.000007 -0.000012 0.007281 -0.014739 26.289200 40.985400 -0.000006 -0.000013 1.061430 0.244002 -80.060900 11.754300 -0.000000 0.000003 -1.935270 -2.486190 -16.914400 -2.192510 6.469440 -0.000001 -174.238000 25.293100 153.256000 -39.081100 -0.002282 -0.040193 0.004402 -0.011412 5.285450 -40.985400 0.000008 0.000006 -6.137850 1.489760 -57.229000 -11.754300 -0.000006 -0.000006 -0.021674 -0.176393 -23.783100
0.000000 0.000000 0.000000 0.000000 0.000000 -0.000000 -2.807510 87.278400 47.756100 -89.161200 -7.013220 -178.569000 15.735700 0.000005 -0.000001 63.092400 80.238400 -62.171400 8.984550 -0.406207 -0.000000 9.799770 -8.765960 2.596310 16.377300 -0.000001 -0.000001 7.143570 -3.459180 -1.042800 6.456720 -0.000001 -0.000000 1.442150 1.580700 0.556871 12.994200 -0.242716 4.980390 -88.167900 -5.576490 -71.780000 5.348090 -0.000007 -0.000001 -31.616100 15.464100 -40.263200 24.328600 0.000019 0.000005 6.026320 4.072600 -56.069400 22.291600 -0.000001 0.000005 8.758510 5.563310 -9.350410 12.994500 -0.242716 -4.980390 89.889300 0.218434 -63.128000 -5.348130 -0.000001 -0.000004 -63.214000 24.536800 5.056240 -24.328900 0.000322 -0.000009 4.843080 6.213190 -38.063400 -22.291500 -0.000108 -0.000004 2.314940 5.575240 -9.959540 -2.192480 -6.469440 -0.000000 -174.281000 -5.743590 8.839530 39.081100 -0.000007 -0.000012 -0.009985 0.019360 27.283500 40.985400 -0.000006 -0.000013 0.169898 1.529290 -79.751200 11.754300 -0.000000 0.000003 -1.981760 -2.443600 -20.319500 -2.192510 6.469440 -0.000001 -174.140000 24.469000 151.370000 -39.081100 -0.002282 -0.040193 0.003752 -0.003505 6.639380 -40.985400 0.000008 0.000006 -4.494010 -1.424210 -57.911300 -11.754300 -0.000006 -0.000006 -0.021227 -0.173995 -23.684300
0.000000 0.000000 0.000000 0.000000 0.000000 -0.000000 -1.827950 86.466200 43.508500 -88.303600 -8.362150 -179.481000 15.735700 0.000005 -0.000001 60.970200 80.389800 -59.494800 8.984550 -0.406207 -0.000000 9.251150 -9.257700 3.704120 16.377300 -0.000001 -0.000001 7.414120 -3.546160 -1.197450 6.456720 -0.000001 -0.000000 0.964938 1.979770 0.556898 12.994200 -0.242716 4.980390 -88.363700 -5.092940 -72.162700 5.348090 -0.000007 -0.000001 -32.237400 14.625600 -39.354100 24.328600 0.000019 0.000005 5.972900 3.826040 -57.471600 22.291600 -0.000001 0.000005 8.999170 5.563200 -9.345230 12.994500 -0.242716 -4.980390 89.765400 0.460000 -62.980600 -5.348130 -0.000001 -0.000004 -63.099900 24.103200 6.515020 -24.328900 0.000322 -0.000009 5.360380 7.082170 -37.278500 -22.291500 -0.000108 -0.000004 2.353060 5.574070 -9.898070 -2.192480 -6.469440 -0.000000 -171.647000 -5.175440 9.293800 39.081100 -0.000007 -0.000012 -0.054307 0.098981 28.752000 40.985400 -0.000006 -0.000013 -0.925564 3.331000 -77.625400 11.754300 -0.000000 0.000003 -1.940110 -2.281120 -26.139600 -2.192510 6.469440 -0.000001 -171.470000 23.731100 146.164000 -39.081100 -0.002282 -0.040193 -0.005138 0.032888 14.440600 -40.985400 0.000008 0.000006 5.217030 -3.014970 -54.758300 -11.754300 -0.000006 -0.000006 -0.026823 -0.202513 -24.862400
0.000000 0.000000 0.000000 0.000000 0.000000 -0.000000 -0.702255 85.783700 38.915600 -87.002400 -9.417900 179.484000 15.735700 0.000005 -0.000001 59.854300 80.721800 -57.656800 8.984550 -0.406207 -0.000000 8.546690 -9.260670 5.091900 16.377300 -0.000001 -0.000001 7.374010 -3.735800 -1.385030 6.456720 -0.000001 -0.000000 0.635493 2.276600 0.622645 12.994200 -0.242716 4.980390 -88.669600 -4.242610 -72.571600 5.348090 -0.000007 -0.000001 -32.653900 14.857500 -38.110400 24.328600 0.000019 0.000005 5.798010 3.541880 -58.683200 22.291600 -0.000001 0.000005 9.144190 5.565720 -9.471050 12.994500 -0.242716 -4.980390 89.559200 0.857912 -62.806000 -5.348130 -0.000001 -0.000004 -62.825000 22.931300 8.006800 -24.328900 0.000322 -0.000009 5.659530 7.564770 -36.976800 -22.291500 -0.000108 -0.000004 2.216270 5.574420 -9.916430 -2.192480 -6.469440 -0.000000 -168.342000 -4.809070 9.510640 39.081100 -0.000007 -0.000012 -0.064780 0.109403 30.631000 40.985400 -0.000006 -0.000013 -1.833300 5.244760 -75.456500 11.754300 -0.000000 0.000003 -1.766720 -1.795040 -26.038900 -2.192510 6.469440 -0.000001 -171.119000 20.855200 142.040000 -39.081100 -0.002282 -0.040193 0.053105 -0.118201 22.841800 -40.985400 0.000008 0.000006 6.986290 -4.667960 -46.128600 -11.754300 -0.000006 -0.000006 -0.032053 -0.226723 -25.866500
0.000000 0.000000 0.000000 0.000000 0.000000 -0.000000 0.413954 85.186300 33.662100 -85.381100 -9.865330 -179.681000 15.735700 0.000005 -0.000001 60.532700 80.483100 -57.546700 8.984550 -0.406207 -0.000000 9.145250 -9.278500 6.720990 16.377300 -0.000001 -0.000001 6.839180 -3.350600 -1.684510 6.456720 -0.000001 -0.000000 0.401563 2.623890 0.362320 12.994200 -0.242716 4.980390 -88.860900 -3.552710 -72.208700 5.348090 -0.000007 -0.000001 -34.171300 16.067700 -36.051800 24.328600 0.000019 0.000005 6.742330 3.965980 -59.670300 22.291600 -0.000001 0.000005 9.127030 5.565630 -9.466570 12.994500 -0.242716 -4.980390 89.578100 0.828811 -63.019900 -5.348130 -0.000001 -0.000004 -62.632400 21.778900 8.393770 -24.328900 0.000322 -0.000009 5.304180 7.256260 -36.322800 -22.291500 -0.000108 -0.000004 2.267500 5.574690 -9.930540 -2.192480 -6.469440 -0.000000 -165.079000 -3.421940 11.294600 39.081100 -0.000007 -0.000012 -0.048433 0.073956 33.221100 40.985400 -0.000006 -0.000013 -2.619120 5.747340 -71.208400 11.754300 -0.000000 0.000003 -0.075545 -0.379305 -32.306000 -2.192510 6.469440 -0.000001 -171.382000 17.793800 140.705000 -39.081100 -0.002282 -0.040193 0.055098 -0.079467 33.099700 -40.985400 0.000008 0.000006 5.678760 -8.446500 -47.607400 -11.754300 -0.000006 -0.000006 -0.023897 -0.187989 -24.261800
0.000000 0.000000 0.000000 0.000000 0.000000 -0.000000 1.465630 84.918600 28.190600 -84.140800 -9.477160 -177.802000 15.735700 0.000005 -0.000001 62.164900 79.913500 -58.639500 8.984550 -0.406207 -0.000000 10.471700 -9.273980 7.910670 16.377300 -0.000001 -0.000001 6.934540 -2.756170 -1.670130 6.456720 -0.000001 -0.000000 0.085644 3.071030 -0.173631 12.994200 -0.242716 4.980390 -88.948300 -3.209690 -71.847100 5.348090 -0.000007 -0.000001 -37.066100 17.744400 -32.821300 24.328600 0.000019 0.000005 7.847020 4.615070 -59.723000 22.291600 -0.000001 0.000005 9.056780 5.566820 -9.526620 12.994500 -0.242716 -4.980390 89.617000 0.768684 -63.511800 -5.348130 -0.000001 -0.000004 -62.100900 22.215500 6.915620 -24.328900 0.000322 -0.000009 5.133640 7.321230 -35.189800 -22.291500 -0.000108 -0.000004 2.146990 5.571240 -9.751570 -2.192480 -6.469440 -0.000000 -162.895000 -2.129450 12.713800 39.081100 -0.000007 -0.000012 0.011433 -0.014796 37.689700 40.985400 -0.000006 -0.000013 -1.535650 4.744090 -63.659700 11.754300 -0.000000 0.000003 -0.159300 -0.572789 -40.861700 -2.192510 6.469440 -0.000001 -170.025000 17.844800 141.779000 -39.081100 -0.002282 -0.040193 0.121658 -0.135981 41.042200 -40.985400 0.000008 0.000006 9.081300 -7.934660 -52.304000 -11.754300 -0.000006 -0.000006 -0.010062 -0.104097 -20.814400
